<?xml version="1.0" encoding="utf-8"?>
<!-- Generator: Adobe Illustrator 25.0.1, SVG Export Plug-In . SVG Version: 6.00 Build 0)  -->
<svg version="1.1" id="圖層_1" xmlns="http://www.w3.org/2000/svg" xmlns:xlink="http://www.w3.org/1999/xlink" x="0px" y="0px"
	 viewBox="0 0 427.4 427.4" style="enable-background:new 0 0 427.4 427.4;" xml:space="preserve">
<style type="text/css">
	.st0{fill:#DF80B1;}
	.st1{fill:#FFFFFF;}
	.st2{fill:#FCD4EC;}
	.st3{fill:none;stroke:#3F2822;stroke-linecap:round;stroke-linejoin:round;stroke-miterlimit:10;}
	.st4{fill:#3F2822;}
	.st5{fill:#F9F8F4;}
	.st6{fill:#442824;}
</style>
<g>
	<rect class="st0" width="427.4" height="427.4"/>
	<g id="圖層_1_2_">
		<g>
			<g>
				<path class="st1" d="M76,275.6c0,0-11.5,3.5-12.8,23.2c-1.3,19.7,8.2,24.3-4,40.9c0,0-33,12.2-27.8-29.5c0,0,1.4-11.8,6.9-20.8
					c5.5-9,12.9-18.3,14.1-44.2s21.7-19.6,21.7-19.6s5.4,3.8,9.8,11.3c4.4,7.5,15.2,5.3,18.7,2.9c3.5-2.4,11.2-6.5,19.8-2.2
					c8.5,4.3,12.2,17.8,12.2,17.8s6.6,27,19.9,43.8c13.3,16.8,0.8,47.4,0.8,47.4s-7.8,7.7-20.4,5.6c-12.5-2-9.5-31.1-9.5-31.1
					s3.5-47.5-19-51.3c0,0-5.9-0.7-3.4,12.5c2.5,13.2,5.7,38.8-6.3,40.4s-15.4-9.4-11.6-29.1C88.9,273.7,76,275.6,76,275.6z"/>
				<path class="st1" d="M304.9,230.5c-3-8.1-11.5-13-19.9-11c-0.4,0.1-0.7,0.1-1.1,0.3c-10.5,3-4.3,31.6-4.3,31.6l-0.7,34.5
					l-19.6-42.3c0,0-6.6-20.1-17.2-24.3c-0.5-0.3-0.7-0.5-0.7-0.5s-1.2-0.2-2.9-0.3h-0.1h-0.1c-5.8-0.1-17.7,2.2-16.6,21.9
					c1.3,26-5.1,36-9.7,45.4c-4.6,9.5-4.9,21.3-4.9,21.3c-1,41.9,30.5,26.6,30.5,26.6c10.5-17.7,0.6-21.3,0-41.1
					c-0.1-6.4,0.9-11.3,2.4-14.8c0.4,0.5,0.9,1,1.4,1.4c15.8,14.4,26.7,40,26.7,40s5.7,12.6,14.8,15.6c0,0,1.9,0.4,4.1-0.7v0.1
					c0.2-0.1,0.4-0.4,0.7-0.5c0.8-0.5,1.6-1.3,2.4-2.4c0.2-0.3,0.4-0.7,0.6-1.2c3.7-6,4.6-14.3,4.6-14.3s2.4-27.3,11.8-45
					C313.7,258.4,308.6,240.3,304.9,230.5z"/>
				<path class="st1" d="M197.4,285.7c0,0,9.3-30.1,3.1-45.7c-6.2-15.6-17.4-18.6-29-9.5s-5.9,21.7,1.9,33.2
					c7.7,11.5-16.1,69.7-3.3,81.7c12.8,12.1,23.9,3.4,23.9,3.4s14.8-16.8,6.5-29.4C193.6,309.1,197.4,285.7,197.4,285.7z"/>
				<path class="st1" d="M356.7,258.2c0,0,21,7.5,31.8,2.2c10.8-5.2,9.7-14.2,3-21.3c-6.7-7.1-37-3.7-47.1-3.7s-22.5-5.3-24.3,13.1
					s-2.6,48.3-7.1,60.2c-4.5,11.9-5.2,26.9,11.2,33.7s45.2,14.6,61.7,5.2c16.4-9.3,7.8-25.8-3-24.3c-10.8,1.5-31,3.7-40.7-7.5
					c0,0-4.5-11.2,2.2-11.6c6.7-0.4,28.1,9.7,33.7,0.7c5.6-9,8.2-22.5-12.3-22.5s-25.8,0-24.7-10.4
					C342.1,261.6,343.7,258.2,356.7,258.2z"/>
			</g>
			<g>
				<path class="st1" d="M311.4,127.1c0,0-3.1-7.1,1-9.1c5.4-2.5,14.8,6.1,14.8,6.1s7,9.7,18.4-0.1s7.1-35.4-9.1-39.4
					c-16.2-3.9-31.6-8.8-49.8,7.6s-21.3,27.6-13.3,43c8,15.4,21.9,14,21.9,14s27.5-1.9,29,10.2c1.9,16.7-6.8,20.1-6.8,20.1
					s-13.4,4.3-15.3-12.4c-1.9-16.7-25.7-15.2-29.9,2.8c-4.3,18-0.6,46.9,31.1,42.2s39.1-15.4,39.1-15.4s13.5-20.7,1.3-42.3
					c-10.9-19.5-17.5-17.9-24.6-20.7C312.2,130.8,311.4,127.1,311.4,127.1z"/>
				<path class="st1" d="M158,81.3c-5-1.9-12.4-3.1-22.6-0.9c-0.1,0-0.2,0.1-0.3,0.1c-7.2,1.5-14.8,1.3-21.9-0.4
					c-7.2-1.8-19.3-3.3-30.6,2c0,0-12.2,12.6-4.8,23.1c5.2,7.4,19.7,6.9,30.1,5.4c7.5,8.4,7.6,30.9,7.8,33.9
					c0.3,4.4,1,32.8-11.3,30.7c0,0-5.6-1.3-7.3-8.1c-1.8-6.7-16.1-5.8-17.5,3.8c-1.5,9.6-1.2,36.6,30.7,43
					c31.9,6.4,38.4-17.2,38.7-22.8c0.3-5.6-4.9-13.1-12.6-29c-5.1-10.7-5.7-36.6,0.3-51.3c11.4,1.5,19.9,1.4,26.8-6.3
					C173.4,93.1,163,83.2,158,81.3z"/>
				<path class="st1" d="M256,175.8c-4.4-8.2-14.8-45.3-14.8-45.3s-11.7-36.1-35.8-42.1c-24.1-6-24.4,12.4-25.1,25.7
					c-0.4,7.2-3.3,18.3-5.7,26.8c-2,6.8-4.9,13.4-8.4,19.5c-3.5,6.1-7.9,15.2-7.9,22.8c0,12.7,17.8,13.3,26,13
					c8.2-0.3,12-15.8,17.8-19.9c5.7-4.1,12.8,4.4,12.8,4.4s3.4,24.7,25.5,25.7C262.3,207.2,260.4,184,256,175.8z M215.5,147.9
					c-10.8,1.2-10.2-6.9-10.2-6.9s-0.6-8.7,0-10.7c0.7-2.7,4.9-7.3,9.8-4.7c4.9,2.6,10.5,5.6,11.2,9.5
					C226.9,138.9,227.8,146.6,215.5,147.9z"/>
			</g>
		</g>
	</g>
</g>
<g>
	<path class="st1" d="M97.7,79.6c-0.6-6-6-11-12-11.3s-11.8,4.4-12.8,10.3c-1.1,5.9,2.7,12.3,8.4,14.1"/>
	<path class="st1" d="M147.4,82.6c-3.2-5.9,0.4-11.6,4.5-14.3c3.5-2.3,8.3-3.8,12.6-0.6c4,2.9,6,9,5.3,13.5
		c-0.7,4.5-3.5,7.7-6.9,9.7"/>
</g>
<path class="st2" d="M94.9,81.9c-0.4-3.7-3.7-6.9-7.4-7c-3.7-0.1-7.3,2.7-8,6.4c-0.7,3.7,1.7,7.6,5.2,8.8"/>
<path class="st2" d="M150,83.5c-2-3.6,0.3-7.2,2.8-8.9c2.2-1.4,5.1-2.3,7.8-0.4c2.5,1.8,3.7,5.6,3.3,8.4c-0.4,2.8-2.2,4.8-4.3,6"/>
<g>
	<g>
		<g>
			<path class="st4" d="M119.9,102.7c-0.2,0-0.3,0-0.5,0c-2.2-0.2-2.9-2-2.9-2.1c-0.1-0.4,0.1-0.8,0.4-0.9c0.4-0.1,0.8,0.1,0.9,0.4
				c0,0,0.4,1,1.7,1.1c0.8,0.1,1.4-0.1,1.7-0.4c0.6-0.6,0.5-1.6,0.5-1.6c0-0.4,0.3-0.7,0.7-0.8c0.4,0,0.7,0.3,0.8,0.7
				c0,0.1,0.1,1.7-1,2.7C121.7,102.4,120.9,102.7,119.9,102.7z"/>
		</g>
		<g>
			<path class="st4" d="M124.8,102.9c-0.8,0-1.5-0.3-2.1-0.8c-1.1-1-1-2.6-1-2.8c0-0.4,0.3-0.7,0.8-0.7c0.4,0,0.7,0.4,0.7,0.8
				c0,0.3,0.1,1.2,0.5,1.7c0.3,0.3,0.7,0.4,1.4,0.4c1.1-0.1,1.4-1,1.4-1.1c0.1-0.4,0.5-0.6,0.9-0.5c0.4,0.1,0.6,0.5,0.5,0.9
				c0,0.1-0.6,1.9-2.6,2.1C125.1,102.9,125,102.9,124.8,102.9z"/>
		</g>
		<g>
			<g>
				<path class="st4" d="M120.6,98.5c0-0.8,0.8-0.8,1.7-0.9c1-0.1,1.7-0.1,1.7,0.9c0,0.8-0.8,1.4-1.7,1.5
					C121,100.1,120.6,99.3,120.6,98.5z"/>
			</g>
		</g>
		<g>
			<path class="st4" d="M121.6,104.5c0,0,1.1,0.1,1.6,0s1.1,0.8,0.4,1.3c-0.7,0.5-2,0.3-2.7-0.4
				C120.2,104.8,121.2,104.1,121.6,104.5z"/>
		</g>
	</g>
	<g>
		<g>
			<path class="st4" d="M106.8,89.4c-0.9,1.8-0.3,4.2,1.2,5.5c1.5,1.3,3.9,1.6,5.7,0.8c0.6-0.2,1.1-0.6,1.4-1.1
				c0.4-0.6,0.5-1.4,0.6-2.2c0.1-1.2-0.2-2.5-0.9-3.5C113.3,86.6,108.4,86.1,106.8,89.4z"/>
		</g>
		<g>
			<path class="st5" d="M111.4,91.5c-0.4,0.1-0.8,0.2-1.2,0.1s-0.8-0.2-1.1-0.5c-0.3-0.4-0.3-1-0.1-1.5c0.2-0.5,0.6-0.8,1.1-1
				c0.7-0.2,1.4-0.2,2.1,0.2c0.4,0.2,0.8,0.7,0.8,1.2c0,0.4-0.2,0.8-0.5,1.1C112.1,91.4,111.8,91.4,111.4,91.5z"/>
		</g>
		<g>
			<path class="st5" d="M110.4,93.4c-0.3,0-0.5-0.1-0.8,0.1c-0.3,0.2-0.2,0.7,0,0.9c0.3,0.2,0.6,0.3,1,0.4c0.7,0.1,1.5,0.1,2.2-0.2
				c0.2-0.1,0.3-0.3,0.4-0.4c0.2-0.5-0.3-1.2-0.8-1.2c-0.3,0-0.5,0.2-0.8,0.3C111.2,93.3,110.8,93.4,110.4,93.4z"/>
		</g>
	</g>
	<g>
		<g>
			<path class="st4" d="M128.7,89.8c-0.9,1.8-0.3,4.2,1.2,5.5c1.5,1.3,3.9,1.6,5.7,0.8c0.6-0.2,1.1-0.6,1.4-1.1
				c0.4-0.6,0.5-1.4,0.6-2.2c0.1-1.2-0.2-2.5-0.9-3.5C135.2,87,130.3,86.6,128.7,89.8z"/>
		</g>
		<g>
			<path class="st5" d="M133.3,91.9c-0.4,0.1-0.8,0.2-1.2,0.1c-0.4,0-0.8-0.2-1.1-0.5c-0.3-0.4-0.3-1-0.1-1.5s0.6-0.8,1.1-1
				c0.7-0.2,1.4-0.2,2.1,0.2c0.4,0.2,0.8,0.7,0.8,1.2c0,0.4-0.2,0.8-0.5,1.1C134.1,91.8,133.8,91.8,133.3,91.9z"/>
		</g>
		<g>
			<path class="st5" d="M132.3,93.8c-0.3,0-0.5-0.1-0.8,0.1c-0.3,0.2-0.2,0.7,0,0.9s0.6,0.3,1,0.4c0.7,0.1,1.5,0.1,2.2-0.2
				c0.2-0.1,0.3-0.3,0.4-0.4c0.2-0.5-0.3-1.2-0.8-1.2c-0.3,0-0.5,0.2-0.8,0.3C133.1,93.7,132.7,93.8,132.3,93.8z"/>
		</g>
	</g>
	<g>
		<path class="st6" d="M110.4,83.7c-0.4,0.1-0.6,0.2-0.8,0.6c-0.2,0.3-0.2,0.6,0.2,0.8c0.2,0.2,0.5,0.2,0.8,0.2c1,0,2,0,3-0.3
			c0.2,0,0.3-0.1,0.4-0.2c0.1-0.2,0.2-0.5,0.1-0.7c-0.1-0.3-0.1-0.4-0.4-0.5c-0.1-0.1-0.4,0-0.5,0c-0.5,0-1,0-1.4,0.1
			C111.3,83.6,110.8,83.6,110.4,83.7z"/>
	</g>
	<g>
		<path class="st6" d="M133.7,84.1c0.4,0.1,0.7,0.2,0.9,0.6c0.2,0.3,0.2,0.6-0.2,0.8c-0.2,0.2-0.6,0.2-0.9,0.2c-1.1,0-2.2,0-3.3-0.3
			c-0.2,0-0.3-0.1-0.4-0.2c-0.1-0.2-0.2-0.5-0.2-0.7c0.1-0.3,0.2-0.4,0.4-0.5c0.1-0.1,0.4,0,0.6,0c0.5,0,1.1,0,1.6,0.1
			C132.7,84.1,133.3,84,133.7,84.1z"/>
	</g>
	<g>
		<g>
			<path class="st2" d="M96.7,98.6c0-1.3,0.6-2.6,1.8-3.4c1-0.7,2.6-1,4.1-1c1.5,0,3.1,0.4,4.1,1c1.2,0.8,1.8,2.1,1.8,3.4
				c0,1.2-0.4,2.4-1.4,3.2c-1.1,0.8-2.8,1.2-4.5,1.2c-1.6,0-3.1-0.3-4.2-1.1C97.3,101.2,96.7,99.9,96.7,98.6z"/>
		</g>
		<g>
			<path class="st4" d="M98,100.8c0,0,1.2-2.8,1.9-3.6c0.7-0.7-0.2-1.5-0.2-1.5s-0.8-0.9-1.8,1.5c-1,2.5-0.6,3.5-0.4,3.7
				S97.9,101.1,98,100.8z"/>
		</g>
		<g>
			<path class="st4" d="M101.1,101.2c0,0,1-2.8,1.7-3.5c0.6-0.8-0.3-1.4-0.3-1.4s-0.8-0.8-1.7,1.6s-0.4,3.4-0.2,3.6
				C100.8,101.6,101,101.4,101.1,101.2z"/>
		</g>
		<g>
			<path class="st4" d="M104.3,101.3c0,0,0.8-2.6,1.3-3.3c0.5-0.7-0.5-1.2-0.5-1.2s-0.9-0.6-1.5,1.6c-0.6,2.3,0,3,0.2,3.2
				C104,101.7,104.2,101.5,104.3,101.3z"/>
		</g>
		<g>
			<path class="st4" d="M106.9,101.3c0,0,0.7-2.2,1.2-2.8c0.5-0.6-0.4-1-0.4-1s-0.8-0.5-1.4,1.4c-0.6,1.9,0,2.6,0.2,2.7
				S106.8,101.4,106.9,101.3z"/>
		</g>
	</g>
	<g>
		<g>
			<path class="st2" d="M134.9,99.4c0-1.2,0.6-2.5,1.7-3.2c1-0.7,2.5-1,3.9-1c1.4,0,2.9,0.3,3.9,1c1.2,0.8,1.7,2,1.7,3.2
				c0,1.1-0.4,2.3-1.4,3c-1,0.8-2.7,1.2-4.3,1.2c-1.5,0-3-0.3-4-1C135.5,101.9,134.9,100.6,134.9,99.4z"/>
		</g>
		<g>
			<path class="st4" d="M136.2,101.5c0,0,1.2-2.7,1.8-3.4s-0.2-1.5-0.2-1.5s-0.7-0.9-1.7,1.5c-1,2.4-0.6,3.4-0.4,3.6
				C135.8,101.9,136.1,101.8,136.2,101.5z"/>
		</g>
		<g>
			<path class="st4" d="M139.1,101.9c0,0,1-2.7,1.6-3.4c0.6-0.7-0.3-1.4-0.3-1.4s-0.8-0.8-1.6,1.5c-0.8,2.3-0.3,3.2-0.2,3.4
				C138.8,102.3,139.1,102.1,139.1,101.9z"/>
		</g>
		<g>
			<path class="st4" d="M142.2,101.9c0,0,0.7-2.5,1.2-3.2c0.5-0.7-0.5-1.2-0.5-1.2s-0.8-0.6-1.5,1.6c-0.6,2.2,0,2.9,0.2,3.1
				S142.1,102.1,142.2,101.9z"/>
		</g>
		<g>
			<path class="st4" d="M144.6,101.9c0,0,0.7-2.1,1.1-2.7c0.5-0.6-0.4-1-0.4-1s-0.7-0.5-1.3,1.3c-0.6,1.8,0,2.5,0.1,2.6
				C144.4,102.3,144.6,102.1,144.6,101.9z"/>
		</g>
	</g>
</g>
</svg>
