<?xml version="1.0" encoding="utf-8"?>
<!-- Generator: Adobe Illustrator 25.0.1, SVG Export Plug-In . SVG Version: 6.00 Build 0)  -->
<svg version="1.1" id="圖層_1" xmlns="http://www.w3.org/2000/svg" xmlns:xlink="http://www.w3.org/1999/xlink" x="0px" y="0px"
	 viewBox="0 0 163 165" style="enable-background:new 0 0 163 165;" xml:space="preserve">
<style type="text/css">
	.st0{fill:#FFFFFF;}
	.st1{fill:#3F2822;}
	.st2{fill:#FCD4EC;}
	.st3{display:none;}
	.st4{display:inline;}
	.st5{fill:#F9F8F4;}
	.st6{fill:#442824;}
	.st7{fill:#DF80B1;}
</style>
<g id="Circle">
	<circle id="Ellipse_196" class="st0" cx="81.5" cy="82.5" r="58.4"/>
</g>
<path id="SVGID_x5F_1_x5F_" style="fill:none;" d="M-66.5,76.2c0,40.1-32.5,72.7-72.7,72.7s-72.7-32.5-72.7-72.7
	s32.5-72.7,72.7-72.7S-66.5,36.1-66.5,76.2z"/>
<text><textPath  xlink:href="#SVGID_x5F_1_x5F_" startOffset="80.9129%">
<tspan  style="font-family:'NotoSansCJKtc-Regular-B5pc-H'; font-size:13px; letter-spacing:400;">網頁設計  ‧  平面設計  ‧  影片剪輯  ‧  UXUI  ‧  </tspan></textPath>
</text>
<g>
	<path class="st1" d="M25.1,32.1c0.8,0.3,1.8,0.7,2.3,1l-0.3,0.7c-0.2-0.1-0.3-0.2-0.5-0.3c-1.6,2.3-1.8,2.6-1.9,2.9
		c-0.2-0.1-0.5-0.3-0.8-0.4c0.1-0.2,0.1-0.6,0-1.2c0-0.3-0.2-1-0.4-1.7c-0.8,1-0.9,1.3-1,1.4c-0.2-0.1-0.5-0.3-0.8-0.4
		c0.1-0.2,0.1-0.5,0-0.9c-0.1-0.4-0.5-2-1.2-3.3l0.8-0.3c0.5,1.2,0.9,2.5,1.1,3.6l0.8-1c-0.2-0.6-0.4-1.2-0.6-1.8l0.8-0.2
		c0.5,1.6,0.9,3.3,1.1,4.8l1.3-1.8c-0.4-0.2-0.8-0.3-1.1-0.5L25.1,32.1z M34.2,30.6c0.4,0.4,0.5,0.6,0.3,0.9c-0.1,0.3-0.4,0.7-1,1.2
		c-0.2-0.1-0.5-0.3-0.8-0.4c0.4-0.4,0.7-0.7,0.8-0.8c0.1-0.1,0.1-0.2,0-0.3l-6.4-6.1L24,28.5l7.2,6.8l-0.6,0.6l-7.8-7.4l4.3-4.6
		L34.2,30.6z M25.1,27.8c0.6,0.2,1.3,0.4,1.7,0.7l-0.3,0.6c-0.4-0.3-1.1-0.6-1.7-0.8L25.1,27.8z M25.8,36.1c0.7,0.8,1.4,1.8,1.7,2.5
		c-0.2,0-0.5,0.2-0.6,0.3c-0.4-0.7-1-1.6-1.7-2.4L25.8,36.1z M31.3,30.7c0.1-0.1,0.4-0.4,0.5-0.6c0.2,0.1,0.4,0.3,0.5,0.4
		c-0.1,0.2-0.3,0.4-0.5,0.6l-1.1,1.1c-0.6,0.6-0.9,0.5-1.5,0l-0.9-0.8L28,31.7l-0.5-0.5l1.2-1.2c-0.3-0.2-0.8-0.3-1.1-0.4l0.2-0.6
		l-1.3,1.4l-0.5-0.5l1.6-1.7c-0.3-0.6-0.7-1.3-1.1-1.8l0.6-0.3c0.3,0.6,0.7,1.2,0.9,1.7l0.7-0.8l0.5,0.5L27.8,29
		c0.4,0.1,0.9,0.3,1.2,0.4l-0.2,0.5l1.3-1.3l0.5,0.5l-1.8,1.9l0.9,0.8c0.2,0.2,0.3,0.3,0.5,0.1L31.3,30.7z M26.5,35.2
		c0.7,0.4,1.6,1.1,2.1,1.5l-0.4,0.6c-0.5-0.5-1.4-1.1-2.1-1.6L26.5,35.2z M27.2,34c0.8,0.3,1.7,0.8,2.2,1.1l-0.3,0.6
		c-0.6-0.4-1.5-0.8-2.2-1.2L27.2,34z"/>
	<path class="st1" d="M38.7,17.8c-0.1-0.3-0.2-0.7-0.4-1.1l-3.9,2.5l-0.5-0.7l8.7-5.5l0.5,0.7l-3.9,2.5c0.1,0.4,0.2,0.8,0.3,1.1
		l3.4-2.2l3.4,5.3l-6.9,4.4L36,19.5L38.7,17.8z M42.4,16.2l-5.2,3.3l0.6,1l5.2-3.3L42.4,16.2z M43.4,17.8l-5.2,3.3l0.6,1l5.2-3.3
		L43.4,17.8z M42.4,23.7c-0.6,1.1-1.6,2.6-2.5,3.6c-0.2-0.1-0.6-0.2-0.9-0.3c0.9-1,2-2.5,2.4-3.4L42.4,23.7z M44.4,19.3l-5.2,3.3
		l0.6,1l5.2-3.3L44.4,19.3z M44.1,22c1.5-0.4,3.2-0.7,4.2-0.8l-0.4,1c-1,0.1-2.6,0.3-4.1,0.7L44.1,22z"/>
	<path class="st1" d="M55.4,9.8L51,11.3l-0.2-0.7l4.4-1.5L55.4,9.8z M52.9,9.7c-0.3-0.4-0.9-0.9-1.4-1.3L52,7.9
		c0.5,0.4,1.1,0.9,1.4,1.2L52.9,9.7z M55.2,10.8l0.2,0.7L52,12.6l-0.2-0.7L55.2,10.8z M52.3,13.5l3.5-1.2L56,13l-3.5,1.2L52.3,13.5z
		 M61.9,10.6c0,1.6-0.3,2.9-1,4.1c1,0.3,2,0.4,3.2,0.2c-0.1,0.2-0.2,0.7-0.3,1c-1.2,0.1-2.3-0.1-3.4-0.4c-0.7,0.9-1.5,1.7-2.4,2.4
		c-0.2-0.2-0.4-0.4-0.6-0.6l-2.7,0.9l0.2,0.6L54.1,19l-1.3-4l3.5-1.2l1.1,3.3c0.8-0.6,1.6-1.3,2.2-2.1c-1-0.5-1.9-1.2-2.6-2l0.4-0.3
		l-1,0.3l-0.3-0.8l5-1.7l0.1-0.1L61.9,10.6z M55.7,14.9l-1.9,0.6l0.7,1.9l1.9-0.6L55.7,14.9z M56.9,8.2c0.4,1.1,0.5,2.4-0.7,3.7
		c-0.2-0.1-0.6-0.4-0.8-0.4c1-1.1,0.9-2.2,0.6-3l-0.4-1.3L59.3,6l0.9,2.7c0.1,0.3,0.2,0.4,0.3,0.4l0.7-0.2c0.2-0.1,0.4-0.1,0.5-0.2
		c0.1,0.2,0.2,0.5,0.3,0.7c-0.1,0.1-0.3,0.2-0.6,0.3l-0.8,0.3c-0.8,0.3-1,0-1.3-0.9L58.7,7l-2,0.7L56.9,8.2z M57.7,12.7
		c0.7,0.7,1.5,1.3,2.4,1.7c0.5-0.8,0.8-1.8,0.9-2.8L57.7,12.7z"/>
	<path class="st1" d="M74.3,5.8l-5.1,0.4l-0.1-0.8L74.2,5L74.3,5.8z M69.8,7l4-0.3l0.1,0.7l-4,0.3L69.8,7z M74,9l-4,0.3l-0.1-0.7
		l4-0.3L74,9z M74.4,13.5l-3.1,0.2l0,0.6l-0.8,0.1l-0.3-4.2l3.9-0.3L74.4,13.5z M71.5,5.1c-0.2-0.4-0.7-1.1-1-1.6l0.7-0.4
		c0.4,0.5,0.9,1.1,1.1,1.5L71.5,5.1z M71,11l0.2,2l2.3-0.2l-0.2-2L71,11z M80.3,7.6l-2.5,0.2l0.5,6.1L77.3,14l-0.5-6.1l-2.4,0.2
		l-0.1-0.9L76.8,7l-0.3-4l0.9-0.1l0.3,4l2.5-0.2L80.3,7.6z"/>
	<path class="st1" d="M108.4,12.8c0.4,0.2,0.6,0.6,0.5,1.1c-0.2,0.4-0.6,0.6-1.1,0.5s-0.6-0.6-0.5-1.1
		C107.5,12.8,108,12.6,108.4,12.8z"/>
	<path class="st1" d="M138.5,37.9l-3.4-3.8l-3.2,2.9l-0.6-0.7l3.2-2.9l-3.4-3.7l0.7-0.6l3.4,3.7l3.2-2.9l-2.9-3.2l0.7-0.6l6.5,7.2
		l-0.7,0.6l-2.9-3.3l-3.2,2.9l3.4,3.8L138.5,37.9z M136.1,28.3c-0.3,1-0.8,2.1-1.3,2.7l-0.8-0.4c0.4-0.6,1-1.8,1.4-2.7L136.1,28.3z
		 M137.4,33.9c0.9-0.2,2.2-0.6,3.1-1l0.4,0.9c-1,0.3-2.3,0.7-3.2,0.8L137.4,33.9z"/>
	<path class="st1" d="M149.8,46c-0.5,0.1-1.1,0.2-1.6,0.3l2.3,4.4l-7.1,3.8l-0.4-0.8l0.6-0.3l-3.7-7l-0.6,0.3l-0.4-0.8l7.1-3.8
		l1.8,3.4c0.5-0.1,1-0.3,1.5-0.4l-2.2-4.2l0.8-0.4l5.1,9.6l-0.8,0.4L149.8,46z M140.6,46l0.8,1.6l5-2.7l-0.8-1.6L140.6,46z
		 M141.8,48.3l1.2,2.3l1.3-0.7l-1.2-2.3L141.8,48.3z M149.3,50.3l-0.9-1.6l-5,2.7l0.9,1.6L149.3,50.3z M146.2,48.9l-1.2-2.3
		l-1.2,0.7l1.2,2.3L146.2,48.9z M148.1,47.9l-1.2-2.3l-1.2,0.6l1.2,2.3L148.1,47.9z"/>
	<path class="st1" d="M153.8,69.2c-1.6-0.1-2.9-0.5-4-1.3c-0.3,1-0.5,2-0.5,3.1c-0.2-0.1-0.7-0.3-0.9-0.4c0-1.2,0.2-2.3,0.7-3.3
		c-0.9-0.7-1.6-1.6-2.2-2.6c0.2-0.1,0.5-0.4,0.6-0.6l-0.7-2.7l-0.6,0.1l-0.2-0.8l4-1l0.9,3.5l-3.4,0.9c0.5,0.9,1.1,1.7,1.9,2.4
		c0.5-0.9,1.3-1.8,2.2-2.5l0.3,0.5l-0.3-1l0.8-0.2l1.3,5.1l0.1,0.1L153.8,69.2z M150,62.7l-0.5-2l-2,0.5l0.5,2L150,62.7z M152,64.8
		c-0.8,0.6-1.4,1.4-1.9,2.3c0.8,0.6,1.7,1,2.7,1.1L152,64.8z M151.7,59.4l0.9,3.5l-0.7,0.2l-0.9-3.5L151.7,59.4z M154.1,62.5
		l-0.7,0.2l-0.9-3.5l0.7-0.2L154.1,62.5z M156.5,64.4c-1.1,0.3-2.4,0.3-3.6-0.9c0.2-0.2,0.4-0.6,0.5-0.7c1.1,1.1,2.1,1.1,2.9,0.8
		l1.3-0.3l0.9,3.7l-2.8,0.7c-0.3,0.1-0.4,0.1-0.4,0.3l0.2,0.7c0,0.2,0.1,0.4,0.2,0.5c-0.2,0.1-0.6,0.2-0.8,0.3
		c-0.1-0.1-0.1-0.3-0.2-0.6l-0.2-0.8c-0.2-0.8,0.1-1,1-1.3l1.9-0.5l-0.5-2L156.5,64.4z M155.1,62.8l-1.1-4.5l0.7-0.2l1.1,4.5
		L155.1,62.8z M155.4,60.2c0.4-0.3,1-0.8,1.4-1.3l0.5,0.6c-0.4,0.5-0.9,1-1.3,1.3L155.4,60.2z"/>
	<path class="st1" d="M155.4,87.7l0-2.5l-6.2,0.1l0-0.9l6.2-0.1l0-2.4l0.9,0l0,2.4l4-0.1l0,0.9l-4,0.1l0,2.5L155.4,87.7z
		 M149.9,81.4l-0.1-3.1l-0.6,0l0-0.8l4.2-0.1l0.1,3.9L149.9,81.4z M152.6,78.2l-2,0l0,2.3l2,0L152.6,78.2z M154.4,81.2l-0.1-4l0.7,0
		l0.1,4L154.4,81.2z M156.6,77.2l0.1,4l-0.7,0l-0.1-4L156.6,77.2z M157.6,81.7l-0.1-5.1l0.8,0l0.1,5.1L157.6,81.7z M158.4,79
		c0.4-0.2,1.1-0.6,1.6-0.9l0.4,0.7c-0.5,0.4-1.1,0.8-1.6,1L158.4,79z"/>
	<path class="st1" d="M148,115.4c-0.2,0.4-0.7,0.6-1.1,0.4c-0.4-0.2-0.6-0.7-0.4-1.1c0.2-0.4,0.7-0.6,1.1-0.4
		C148,114.5,148.2,115,148,115.4z"/>
	<path class="st1" d="M120.2,143.2c-0.2-1.8,0.2-3.9,1.1-5.6c0.3,0.1,0.7,0.2,0.9,0.2c-0.9,1.6-1.3,3.5-1.2,5.2L120.2,143.2z
		 M124.3,138.6c-0.7-0.2-1.5-0.5-2-0.7l0.3-0.7c0.5,0.2,1.3,0.6,2,0.8L124.3,138.6z M122.6,145.8c0-1.5,0.4-3.3,1-4.7
		c0.2,0.1,0.6,0.1,0.9,0.1c-0.6,1.2-1.1,3-1.1,4.3L122.6,145.8z M125.5,138l-1.2-1.6c-0.3-0.4-0.3-0.6-0.2-0.9
		c0.2-0.3,0.5-0.6,1.1-1c0.2,0.2,0.5,0.3,0.7,0.4c-0.4,0.3-0.7,0.6-0.8,0.6c-0.1,0.1-0.1,0.1,0,0.2l1.2,1.6l1.7-1.3l1.4,1.9
		l-4.2,3.2l-1.4-1.9L125.5,138z M127.7,137.2l-2.8,2.2l0.6,0.8l2.8-2.2L127.7,137.2z M124.9,148.2c0-1.4,0.3-3,0.8-4.3
		c0.2,0,0.6,0.1,0.9,0.1c-0.5,1.1-0.9,2.7-0.8,4L124.9,148.2z M125.1,142.1l5.2-4l0.5,0.6l-2.3,1.8c0.2,0.1,0.4,0.2,0.6,0.3
		l-0.5,0.7c-0.3-0.1-0.6-0.2-0.8-0.4l-2.1,1.6L125.1,142.1z M126.4,143l4.4-3.4l2,2.7l-4.4,3.4L126.4,143z M126.6,136.5
		c-0.2-0.8-0.3-1.7-0.2-2.4c0.2,0,0.6,0,0.8,0c-0.1,0.7-0.1,1.5,0.1,2.1L126.6,136.5z M127.9,143.6l3-2.3l-0.5-0.6l-3,2.3
		L127.9,143.6z M128.7,144.7l3-2.3l-0.4-0.6l-3,2.3L128.7,144.7z"/>
	<path class="st1" d="M107.2,151.3l-2.1-4.9l0.9-0.4l1.8,4.1l4.8-2.1c-0.5-1.6-0.7-3.2-0.1-4.8c0.2,0.1,0.7,0.3,0.9,0.3
		c-0.7,2.3,0.1,4.5,1,6.5l1.7,3.8l-0.8,0.4l-1.2-2.7l-4.3,1.9l1.2,2.8l-0.9,0.4l-1.6-3.6l5.1-2.2l-0.1-0.3c-0.2-0.5-0.4-1-0.6-1.5
		L107.2,151.3z"/>
	<path class="st1" d="M88.2,153.9c-0.1-1.9-0.1-2.7,0.2-3.1c0.2-0.3,0.4-0.4,0.8-0.5c0.4-0.1,1.1-0.2,1.8-0.3
		c0.1,0.2,0.2,0.5,0.4,0.8c-0.7,0-1.5,0.2-1.7,0.2c-0.3,0-0.4,0.1-0.5,0.2c-0.2,0.2-0.3,0.8-0.2,2.2l3.8-0.6
		c0.2-1.7,1.2-2.8,4.3-3.9c0.1,0.2,0.4,0.5,0.6,0.7c-2.9,0.8-3.8,1.7-4,3l3.9-0.7l0.1,0.7l-9.6,1.6L88.2,153.9z M88.6,160.6
		l-0.1-0.7l10.6-1.8l0.1,0.7l-2.8,0.5c0.2,0.3,0.6,0.7,0.9,0.9l-0.8,0.3c-0.4-0.3-0.8-0.7-0.9-1l0.4-0.2l-3.6,0.6
		c-0.2,0.4-0.4,1-0.5,1.4l-0.9,0c0.2-0.4,0.4-0.8,0.6-1.2L88.6,160.6z M88.7,155.5c-0.1-0.4,0-0.6,0.3-0.8c0.3-0.2,0.7-0.2,1.4-0.4
		c0.1,0.2,0.2,0.4,0.4,0.6c-0.5,0.1-0.9,0.1-1.1,0.2c-0.1,0-0.2,0.1-0.2,0.2l0.6,3.8l-0.8,0.1L88.7,155.5z M91.7,158.6l-0.5-3.1
		l0.8-0.1l0.5,3.1L91.7,158.6z M93.3,154.7c-0.1-0.4,0-0.5,0.2-0.7c0.2-0.2,0.6-0.2,1.2-0.3c0.1,0.2,0.2,0.4,0.3,0.5
		c-0.4,0.1-0.7,0.1-0.9,0.1c-0.1,0-0.1,0.1-0.1,0.2l0.1,0.4l2.8-0.5c0-0.5,0.2-1.1,0.5-1.6c0.1,0.1,0.5,0.3,0.7,0.4
		c-0.6,0.8-0.5,1.8-0.4,2.5l0.3,1.7l-4.2,0.7L93.3,154.7z M94.2,155.6l0.1,0.7l2.7-0.5c0-0.2-0.1-0.5-0.1-0.7L94.2,155.6z
		 M97.2,157.2l-0.1-0.7l-2.7,0.5l0.1,0.7L97.2,157.2z"/>
	<path class="st1" d="M70.1,157l0.3-4.6l-0.7,0l0.1-0.8l0.7,0l0.1-1.4l0.9,0.1l-0.1,1.4l4.7,0.4l-0.1,0.8l1.9,0.1l0.2-2.2l0.8,0.1
		l-0.2,2.2l2.3,0.2l-0.1,0.8l-2.3-0.2l-0.1,1l1.8,0.1l-0.3,4.3l-1.8-0.1l-0.1,0.9l2.1,0.2l-0.1,0.8l-2.1-0.2l-0.1,1.3l-0.8-0.1
		l0.1-1.3l-2.1-0.2l0.1-0.8l2.1,0.2l0.1-0.9l-1.9-0.1l0.3-4.3l1.9,0.1l0.1-1l-2.3-0.2l0.1-0.8l-0.7-0.1l-0.3,4.6l0.8,0.1l-0.1,0.8
		l-6.1-0.5l0.1-0.8L70.1,157z M70,158.5l4.7,0.3l-0.2,2.6l-4.7-0.3L70,158.5z M70.8,160.4l2.9,0.2l0.1-1.2l-2.9-0.2L70.8,160.4z
		 M71,157l2.9,0.2l0.1-1.1l-2.9-0.2L71,157z M71.1,155.3l2.9,0.2l0.1-1.1l-2.9-0.2L71.1,155.3z M71.4,152.4l-0.1,1.1l2.9,0.2
		l0.1-1.1L71.4,152.4z M76.5,158.2l1.2,0.1l0.1-1.1l-1.2-0.1L76.5,158.2z M76.6,156.4l1.2,0.1l0.1-1.1l-1.2-0.1L76.6,156.4z
		 M79.6,157.3l-1.2-0.1l-0.1,1.1l1.2,0.1L79.6,157.3z M79.8,155.5l-1.2-0.1l-0.1,1.1l1.2,0.1L79.8,155.5z"/>
	<path class="st1" d="M42.6,146.8c-0.4-0.2-0.5-0.7-0.3-1.1s0.7-0.5,1.1-0.3c0.4,0.2,0.5,0.7,0.3,1.1C43.5,146.9,43,147,42.6,146.8z
		"/>
	<path class="st1" d="M22.3,126.4l-4.4,3l-0.7-1l4.4-3c1.8-1.2,1.8-2.4,1.2-3.4c-0.7-1-1.8-1.4-3.6-0.2l-4.4,3l-0.6-0.9l4.4-3
		c2.4-1.7,4-1.1,5.1,0.5C24.7,123,24.7,124.7,22.3,126.4z"/>
	<path class="st1" d="M13.4,113.2l-3,4.1l-0.5-1.2l1.6-2.1c0.3-0.4,0.6-0.7,0.9-1.2l0,0c-0.6,0-1,0-1.5,0l-2.6-0.2l-0.5-1.1l5.1,0.4
		l3.2-4.3l0.5,1.2l-1.7,2.2c-0.3,0.4-0.6,0.8-1,1.3l0,0c0.6,0,1.1,0,1.6,0.1l2.8,0.2l0.5,1.1L13.4,113.2z"/>
	<path class="st1" d="M10.5,103l-5.2,1.3l-0.3-1.1l5.2-1.3c2.1-0.5,2.6-1.6,2.3-2.7c-0.3-1.2-1.2-1.9-3.3-1.4L4.1,99l-0.3-1.1
		L9,96.6c2.8-0.7,4.1,0.4,4.6,2.2C14,100.7,13.4,102.3,10.5,103z"/>
	<path class="st1" d="M2.6,89.5l-0.1-1.1l9.1-0.7l0.1,1.1L2.6,89.5z"/>
	<path class="st1" d="M9.6,59.2c0.1-0.4,0.6-0.7,1-0.5c0.4,0.1,0.7,0.6,0.5,1c-0.1,0.4-0.6,0.7-1,0.5C9.6,60.1,9.4,59.6,9.6,59.2z"
		/>
</g>
<g id="圖層_1_2_">
	<g>
		<g>
			<path class="st2" d="M42.5,99.5c0,0-3.3,1-3.6,6.6c-0.4,5.6,2.3,6.9-1.1,11.6c0,0-9.3,3.4-7.9-8.4c0,0,0.4-3.3,2-5.9
				c1.6-2.5,3.7-5.2,4-12.5s6.2-5.6,6.2-5.6s1.5,1.1,2.8,3.2c1.2,2.1,4.3,1.5,5.3,0.8c1-0.7,3.2-1.8,5.6-0.6c2.4,1.2,3.4,5,3.4,5
				s1.9,7.7,5.6,12.4c3.8,4.8,0.2,13.4,0.2,13.4s-2.2,2.2-5.8,1.6c-3.6-0.6-2.7-8.8-2.7-8.8s1-13.5-5.4-14.5c0,0-1.7-0.2-1,3.5
				c0.7,3.7,1.6,11-1.8,11.4s-4.4-2.7-3.3-8.2C46.1,99,42.5,99.5,42.5,99.5z"/>
			<path class="st2" d="M107.4,86.8c-0.8-2.3-3.3-3.7-5.6-3.1c-0.1,0-0.2,0-0.3,0.1c-3,0.8-1.2,8.9-1.2,8.9l-0.2,9.8l-5.5-12
				c0,0-1.9-5.7-4.9-6.9c-0.1-0.1-0.2-0.1-0.2-0.1s-0.3-0.1-0.8-0.1h0h0c-1.6,0-5,0.6-4.7,6.2c0.4,7.4-1.5,10.2-2.7,12.9
				c-1.3,2.7-1.4,6-1.4,6c-0.3,11.9,8.7,7.6,8.7,7.6c3-5,0.2-6,0-11.7c0-1.8,0.3-3.2,0.7-4.2c0.1,0.1,0.3,0.3,0.4,0.4
				c4.5,4.1,7.6,11.3,7.6,11.3s1.6,3.6,4.2,4.4c0,0,0.5,0.1,1.2-0.2v0c0.1,0,0.1-0.1,0.2-0.1c0.2-0.1,0.5-0.4,0.7-0.7
				c0.1-0.1,0.1-0.2,0.2-0.3c1-1.7,1.3-4.1,1.3-4.1s0.7-7.7,3.3-12.8C109.8,94.7,108.4,89.6,107.4,86.8z"/>
			<path class="st2" d="M76.9,102.4c0,0,2.6-8.5,0.9-13c-1.8-4.4-4.9-5.3-8.2-2.7c-3.3,2.6-1.7,6.2,0.5,9.4
				c2.2,3.3-4.6,19.8-0.9,23.2c3.6,3.4,6.8,1,6.8,1s4.2-4.8,1.8-8.3C75.8,109,76.9,102.4,76.9,102.4z"/>
			<path class="st2" d="M122,94.6c0,0,5.9,2.1,9,0.6c3.1-1.5,2.7-4,0.8-6c-1.9-2-10.5-1.1-13.3-1.1c-2.9,0-6.4-1.5-6.9,3.7
				c-0.5,5.2-0.7,13.7-2,17.1c-1.3,3.4-1.5,7.6,3.2,9.5c4.7,1.9,12.8,4.1,17.5,1.5c4.7-2.6,2.2-7.3-0.8-6.9s-8.8,1.1-11.5-2.1
				c0,0-1.3-3.2,0.6-3.3c1.9-0.1,8,2.7,9.5,0.2c1.6-2.5,2.3-6.4-3.5-6.4c-5.8,0-7.3,0-7-3C117.9,95.6,118.3,94.6,122,94.6z"/>
		</g>
		<g>
			<g>
				<path class="st2" d="M65.8,44.5c-1.4-0.6-3.5-0.9-6.4-0.3c0,0-0.1,0-0.1,0c-2.1,0.4-4.2,0.4-6.2-0.1c-2.1-0.5-5.5-0.9-8.7,0.6
					c0,0-3.5,3.6-1.4,6.6c1.5,2.1,5.6,2,8.5,1.5c2.1,2.4,2.2,8.8,2.2,9.6c0.1,1.3,0.3,9.3-3.2,8.7c0,0-1.6-0.4-2.1-2.3
					c-0.5-1.9-4.6-1.7-5,1.1c-0.4,2.7-0.3,10.4,8.7,12.2c9.1,1.8,10.9-4.9,11-6.5c0.1-1.6-1.4-3.7-3.6-8.2c-1.5-3-1.6-10.4,0.1-14.6
					c3.2,0.4,5.7,0.4,7.6-1.8C70.2,47.8,67.2,45,65.8,44.5z"/>
			</g>
			<path class="st2" d="M109.2,57.5c0,0-0.9-2,0.3-2.6c1.5-0.7,4.2,1.7,4.2,1.7s2,2.7,5.2,0c3.2-2.8,2-10-2.6-11.2
				c-4.6-1.1-9-2.5-14.1,2.2c-5.2,4.7-6,7.8-3.8,12.2c2.3,4.4,6.2,4,6.2,4s7.8-0.5,8.2,2.9c0.5,4.7-1.9,5.7-1.9,5.7
				s-3.8,1.2-4.3-3.5c-0.5-4.7-7.3-4.3-8.5,0.8c-1.2,5.1-0.2,13.3,8.8,12c9-1.4,11.1-4.4,11.1-4.4s3.8-5.9,0.4-12
				c-3.1-5.5-5-5.1-7-5.9C109.4,58.5,109.2,57.5,109.2,57.5z"/>
			<path class="st2" d="M93.5,71.3c-1.2-2.3-4.2-12.8-4.2-12.8S86,48.2,79.1,46.5c-6.8-1.7-6.9,3.5-7.1,7.3
				c-0.1,2.1-0.9,5.2-1.6,7.6c-0.6,1.9-1.4,3.8-2.4,5.5c-1,1.7-2.2,4.3-2.2,6.5c0,3.6,5,3.8,7.4,3.7c2.3-0.1,3.4-4.5,5-5.6
				c1.6-1.2,3.6,1.2,3.6,1.2s1,7,7.2,7.3S94.7,73.6,93.5,71.3z M82,63.4c-3.1,0.3-2.9-1.9-2.9-1.9s-0.2-2.5,0-3
				c0.2-0.8,1.4-2.1,2.8-1.3c1.4,0.7,3,1.6,3.2,2.7C85.3,60.8,85.5,63,82,63.4z"/>
		</g>
	</g>
</g>
<g>
	<g>
		<g>
			<path class="st2" d="M528.5-204.3c-10.6,2.7-19.2,10.5-29.8,13.4c-9.4,2.5-19.4,0.9-29,2.6c-8.8,1.5-17.4,5.9-26.2,4.8l-8.2,0.2
				c-5.4,1-10.7-1.7-16.1-1.2c-3.1,0.3-6.1,1.6-9,2.7c-19.6,7.2-42.1,4.3-59-7.8c-2-1.5-4-3-6.4-3.9c-2.5-0.9-5.3-1-7.9-1.4
				c-11.1-1.6-20.1-10-25-20.5c-3.1-6.5-10.1-17.8-7-24.5c1.2-2.6,3.1-5,3.7-7.8c0.7-3.4-1.6-7.3,0.1-10.3
				c2.6-4.4,6.2-11.4,10.5-13.6l-1-8.2c-2.6-2.9-9.6-2-9.6-2c-6.8,3.2-15.9-0.8-18.1-8c-0.9-2.9-0.8-6.1-2.5-8.6
				c-1-1.5-2.6-2.7-3.5-4.3c-1.5-2.8-0.5-6.4,1.1-9.2c1.6-2.8,3.8-5.3,4.7-8.4c0.5-1.7,0.6-3.5,1.1-5.1c1.6-5,6.6-8,11.2-10.5
				c3-1.6,6.4-3.3,9.8-2.8c6.2,1,10.3,9,16.6,8.4c2.2-0.2,4.3-1.5,6.4-1.1c1.9,0.4,3.3,1.9,4.4,3.4c3,4,5.5,8.5,7.3,13.2l5.8-7.2
				c5.2-9.6,13.9-16,21-15.3c2.4,0.2,4.6,1.1,7.1,0.7c3.1-0.6,6.2-3.1,9.4-4.1c3.6-1.2,6.9-0.1,10.1,0.9l9.8-3
				c7.6-5.4,16.4-11,25.5-9c5.5,1.2,10.1,5.1,15.6,6.4c7.4,1.7,15.3-1.8,22.7-0.2c6,1.3,10.8,5.7,15,10.2l7.1,2.4
				c3.9-5.9,7.9-11.9,13.5-16.2s13.3-6.4,19.9-3.8c1.6,0.6,3.1,1.6,4.7,2.1c2.1,0.7,4.4,0.6,6.5,1.3c6,2,8.5,9.3,8.4,15.6
				c0,2.4-0.2,4.9,0.9,7c0.9,1.6,3.9,4.8,4.7,6.5c2.8,6.1,1.3,13.7-4.1,19.8c-2.8,3.2-2.8,4.9-6.7,6.8c-3.8,1.8-6.5,4.5-11.2,4.9
				l1.2,9.5c5.3,7.3,9.2,19,7.1,27.9c-0.5,2.3,1,7.4,0.9,9.7c-0.1,3.1,1.4,6.1,2,9.2c1.1,5.4-0.4,11.1-3.2,15.8
				c-2.8,4.7-6.9,8.6-11.3,11.9"/>
		</g>
	</g>
	<g class="st3">
		<g class="st4">
			<path class="st1" d="M352.8-319.7c-0.4,0-0.8-0.1-1.1-0.3c-1.2-0.6-1.6-2.1-1-3.2c5.7-10.5,15.2-17.3,23.3-16.6
				c0.9,0.1,1.8,0.2,2.6,0.4c1.4,0.3,2.6,0.5,3.8,0.3c1.3-0.2,2.9-1.1,4.5-1.9c1.5-0.8,3-1.6,4.5-2.1c4.4-1.4,8.4-0.1,11.6,0.9
				c1.3,0.4,1.9,1.8,1.5,3c-0.4,1.3-1.8,2-3,1.5c-2.8-0.9-5.7-1.8-8.6-0.9c-1.2,0.4-2.4,1-3.7,1.8c-1.9,1-3.8,2.1-5.9,2.4
				c-2.1,0.4-3.9,0-5.6-0.3c-0.7-0.1-1.4-0.3-2.1-0.3c-6.3-0.5-14,5.4-18.6,14.1C354.4-320.2,353.6-319.7,352.8-319.7z"/>
		</g>
		<g class="st4">
			<path class="st1" d="M318-277.5c-0.7,0-1.3-0.3-1.8-0.8c-1.1-1.3-4.8-1.5-7.1-1.3c-3.8,1.6-8.3,1.6-12.3-0.3
				c-4.2-1.9-7.4-5.3-8.6-9.3c-0.3-1.1-0.6-2.3-0.8-3.4c-0.3-1.7-0.6-3.4-1.4-4.6c-0.4-0.6-0.9-1.1-1.4-1.6
				c-0.8-0.8-1.6-1.7-2.3-2.9c-1.7-3.2-1.3-7.3,1.2-11.5c0.5-0.9,1.1-1.8,1.7-2.7c1.2-1.8,2.3-3.4,2.8-5.2c0.2-0.7,0.3-1.5,0.5-2.2
				c0.2-1,0.3-2,0.6-3c1.8-5.8,7.1-9,12.3-11.8c2.9-1.6,7-3.8,11.3-3.1c3.5,0.6,6.3,2.8,8.7,4.8c2.6,2.1,4.9,3.9,7.2,3.6
				c0.7-0.1,1.4-0.3,2.1-0.5c1.5-0.4,3.1-0.9,5-0.6c2.7,0.5,4.5,2.5,5.9,4.3c3.2,4.2,5.7,8.9,7.6,13.8c0.5,1.2-0.2,2.6-1.4,3.1
				c-1.2,0.5-2.6-0.2-3.1-1.4c-1.7-4.5-4-8.8-6.9-12.6c-0.9-1.1-1.9-2.3-3-2.5c-0.7-0.2-1.7,0.1-2.8,0.5c-1,0.3-2,0.6-3,0.7
				c-4.4,0.4-7.7-2.3-10.7-4.6c-2.2-1.8-4.3-3.4-6.5-3.8c-2.5-0.4-5.3,0.9-8.3,2.6c-4.6,2.5-8.8,5-10,9.1c-0.2,0.8-0.4,1.6-0.5,2.3
				c-0.2,0.9-0.3,1.8-0.6,2.7c-0.7,2.5-2.1,4.6-3.4,6.6c-0.5,0.8-1.1,1.6-1.5,2.4c-0.8,1.3-2.4,4.5-1.1,6.9c0.3,0.6,0.9,1.2,1.5,1.9
				c0.7,0.7,1.3,1.4,1.9,2.2c1.4,2,1.8,4.4,2.1,6.4c0.2,1,0.3,1.9,0.6,2.9c0.8,2.7,3,5.1,6,6.4c3,1.3,6.2,1.4,8.8,0.1
				c0.2-0.1,0.5-0.2,0.7-0.2c1.4-0.2,8.4-0.8,11.6,2.8c0.9,1,0.8,2.5-0.2,3.4C319.1-277.7,318.5-277.5,318-277.5z"/>
		</g>
		<g class="st4">
			<path class="st1" d="M488.9-333.3c-0.6,0-1.3-0.3-1.7-0.8c-3.7-4-8.3-8.3-13.8-9.5c-3.3-0.7-6.8-0.3-10.5,0.2
				c-4,0.5-8.1,1-12.2,0.1c-3-0.7-5.7-2.1-8.3-3.4c-2.5-1.3-4.8-2.4-7.2-3c-8-1.8-16,3.3-23.6,8.7c-1.1,0.8-2.6,0.5-3.3-0.6
				c-0.8-1.1-0.5-2.6,0.6-3.3c8-5.7,17.4-11.6,27.4-9.4c3.1,0.7,5.8,2.1,8.4,3.4c2.5,1.2,4.8,2.4,7.2,3c3.3,0.7,6.9,0.3,10.6-0.1
				c3.9-0.5,8-1,12.1-0.1c6.8,1.4,12,6.3,16.3,10.9c0.9,1,0.8,2.5-0.1,3.4C490.1-333.6,489.5-333.3,488.9-333.3z"/>
		</g>
		<g class="st4">
			<path class="st1" d="M532.6-286.9c-1.2,0-2.3-1-2.4-2.2c-0.1-1.3,0.9-2.5,2.2-2.6c2.7-0.2,4.7-1.4,6.9-2.7
				c1.1-0.7,2.2-1.3,3.4-1.9c2-1,2.6-1.7,3.7-3.3c0.6-0.8,1.3-1.8,2.2-2.9c4.7-5.4,6.1-11.9,3.7-17.2c-0.3-0.6-1.4-2-2.2-3.1
				c-1-1.3-1.9-2.5-2.4-3.3c-1.3-2.4-1.2-4.9-1.2-7.2l0-0.9c0-5.5-2-11.8-6.8-13.4c-0.9-0.3-1.9-0.4-2.9-0.6
				c-1.2-0.2-2.4-0.4-3.5-0.7c-1.1-0.3-2.1-0.8-3.2-1.3c-0.6-0.3-1.1-0.6-1.7-0.8c-6.2-2.5-13.1,0.1-17.5,3.5
				c-5.4,4-9.2,9.9-12.9,15.6c-0.7,1.1-2.2,1.4-3.3,0.7c-1.1-0.7-1.4-2.2-0.7-3.3c3.8-5.7,8-12.2,14.1-16.8c7-5.3,15.5-6.8,22.2-4.1
				c0.7,0.3,1.3,0.6,2,0.9c0.8,0.4,1.6,0.8,2.5,1.1c0.9,0.3,1.8,0.4,2.8,0.5c1.3,0.2,2.5,0.4,3.7,0.8c7.5,2.5,10.1,11.2,10.1,17.9
				l0,1c0,1.9-0.1,3.6,0.6,4.9c0.4,0.7,1.2,1.6,1.9,2.6c1.2,1.5,2.2,2.8,2.8,4c3.3,7,1.5,15.5-4.5,22.3c-0.8,0.9-1.4,1.8-1.9,2.5
				c-1.2,1.7-2.4,3.4-5.5,4.9c-1.1,0.5-2.1,1.1-3,1.7c-2.5,1.5-5.2,3.1-9,3.4C532.7-286.9,532.7-286.9,532.6-286.9z"/>
		</g>
		<g class="st4">
			<path class="st1" d="M529.3-202.8c-0.7,0-1.4-0.3-1.9-1c-0.8-1-0.6-2.5,0.5-3.3c4.9-3.7,8.4-7.4,10.7-11.2
				c2.7-4.6,3.8-9.7,2.9-14.1c-0.2-1-0.5-2-0.8-3c-0.6-2.1-1.3-4.3-1.2-6.7c0-0.9-0.2-2.1-0.5-3.5c-0.4-2.4-0.9-4.9-0.4-6.8
				c2-8.3-1.9-19.4-6.7-26c-0.8-1.1-0.5-2.6,0.5-3.3c1.1-0.8,2.6-0.5,3.3,0.5c5.3,7.2,9.9,19.7,7.5,29.9c-0.2,0.9,0.2,3.3,0.5,4.8
				c0.3,1.6,0.6,3.2,0.5,4.4c0,1.7,0.5,3.4,1,5.2c0.3,1.1,0.7,2.3,0.9,3.4c1.2,5.6-0.1,11.9-3.5,17.5c-2.6,4.4-6.5,8.5-11.9,12.6
				C530.3-203,529.8-202.8,529.3-202.8z"/>
		</g>
		<g class="st4">
			<path class="st1" d="M388.2-175.6c-13.7,0-27.3-4.1-38.4-12.1l-0.9-0.7c-1.7-1.2-3.2-2.3-4.9-2.9c-1.5-0.6-3.3-0.8-5.1-1
				c-0.8-0.1-1.5-0.2-2.3-0.3c-11.1-1.6-21.2-9.8-26.9-21.9c-0.5-1.1-1.1-2.3-1.8-3.6c-3.5-6.9-8.3-16.3-5.3-23c0.5-1,1-1.9,1.5-2.9
				c0.9-1.5,1.7-2.9,2-4.4c0.2-1,0-2.3-0.2-3.7c-0.4-2.3-0.8-4.9,0.6-7.3l1-1.7c2.7-4.7,6.1-10.6,10.5-12.9c1.2-0.6,2.6-0.1,3.2,1.1
				c0.6,1.2,0.1,2.6-1.1,3.2c-3.1,1.6-6.2,7-8.5,11l-1,1.7c-0.6,0.9-0.3,2.4,0,4.1c0.3,1.7,0.6,3.6,0.2,5.5c-0.5,2.2-1.5,4-2.5,5.8
				c-0.5,0.8-0.9,1.6-1.3,2.5c-2.1,4.5,2.3,13.1,5.2,18.8c0.7,1.3,1.3,2.6,1.8,3.7c5,10.6,13.7,17.8,23.2,19.2
				c0.7,0.1,1.4,0.2,2.1,0.3c2.1,0.2,4.2,0.4,6.3,1.2c2.3,0.8,4.2,2.2,6,3.6l0.9,0.6c16.2,11.6,38,14.4,56.8,7.5l1.5-0.6
				c2.6-1,5.2-2,8.1-2.3c2.9-0.2,5.6,0.2,8.2,0.7c2.7,0.5,5.3,0.9,7.7,0.5c1.3-0.2,2.5,0.6,2.8,1.9c0.2,1.3-0.6,2.5-1.9,2.8
				c-3.3,0.6-6.4,0-9.4-0.5c-2.4-0.4-4.7-0.9-6.9-0.6c-2.2,0.2-4.5,1.1-6.8,2l-1.6,0.6C403.6-176.9,395.9-175.6,388.2-175.6z"/>
		</g>
		<g class="st4">
			<path class="st1" d="M446.4-181c-1.1,0-2.2-0.1-3.3-0.2c-1.3-0.2-2.2-1.4-2.1-2.7c0.2-1.3,1.4-2.2,2.7-2.1
				c5.4,0.7,10.7-0.9,16.4-2.5c3-0.8,6-1.7,9.2-2.3c4.4-0.8,8.9-0.9,13.2-1c5.5-0.1,10.6-0.2,15.6-1.6c4.9-1.3,9.4-3.8,14.2-6.4
				c4.9-2.7,10-5.5,15.6-7c1.3-0.3,2.6,0.4,2.9,1.7c0.3,1.3-0.4,2.6-1.7,2.9c-5.1,1.3-9.7,3.8-14.5,6.5c-4.8,2.6-9.7,5.4-15.2,6.8
				c-5.5,1.5-11.2,1.6-16.7,1.8c-4.4,0.1-8.5,0.2-12.5,0.9c-2.9,0.5-5.8,1.4-8.7,2.2C456.6-182.4,451.6-181,446.4-181z"/>
		</g>
	</g>
	<g>
		<g>
			<g>
				<g>
					<path class="st1" d="M416.8-242.5c-0.4,0-0.8,0-1.3,0c-6-0.1-8.1-4.9-8.2-5.1c-0.4-1,0-2.1,1-2.6c1-0.4,2.1,0,2.6,1
						c0,0.1,1.3,2.6,4.7,2.7c2.1,0,3.7-0.5,4.6-1.5c1.5-1.7,1.2-4.3,1.2-4.4c-0.1-1.1,0.6-2.1,1.7-2.2c1.1-0.1,2.1,0.6,2.2,1.7
						c0,0.2,0.5,4.5-2.2,7.5C421.6-243.6,419.5-242.7,416.8-242.5z"/>
				</g>
			</g>
			<g>
				<g>
					<path class="st1" d="M430.2-242.7c-2.3,0.1-4.2-0.5-5.8-1.8c-3-2.6-3.1-6.9-3.1-7.4c0-1.1,0.8-2,2-2c1.1,0,2,0.9,2,2
						c0,0.8,0.3,3.3,1.8,4.5c0.9,0.7,2.1,1,3.8,0.7c2.8-0.4,3.6-3.1,3.6-3.2c0.3-1,1.4-1.6,2.4-1.4c1,0.3,1.7,1.3,1.4,2.4
						c-0.1,0.2-1.4,5.2-6.8,6.1C431-242.8,430.6-242.7,430.2-242.7z"/>
				</g>
			</g>
			<g>
				<g>
					<g>
						<path class="st1" d="M418-254c-0.1-2.2,2-2.4,4.6-2.7c2.7-0.4,4.6-0.5,4.9,2.1c0.2,2.2-1.9,3.8-4.5,4.3
							C419.5-249.7,418.1-251.8,418-254z"/>
					</g>
				</g>
			</g>
			<g>
				<g>
					<path class="st1" d="M421.8-237.9c0,0,2.9,0.1,4.2-0.3s3.1,1.9,1.2,3.4s-5.4,1.1-7.4-0.6C418-237,420.5-238.9,421.8-237.9z"/>
				</g>
			</g>
		</g>
		<g>
			<g>
				<g>
					<path class="st1" d="M379.2-276.4c-2.1,5.1-0.1,11.5,4.2,14.8c4.4,3.4,10.7,3.7,15.6,1.2c1.5-0.8,2.8-1.8,3.7-3.2
						c1.1-1.8,1.2-4,1.1-6.1c-0.1-3.3-0.9-6.6-2.9-9.3C396.3-285.1,382.9-285.5,379.2-276.4z"/>
				</g>
			</g>
			<g>
				<g>
					<path class="st5" d="M392-271.5c-1.1,0.3-2.1,0.6-3.2,0.6s-2.2-0.4-3-1.2c-0.9-1-1.1-2.7-0.5-3.9c0.5-1.3,1.6-2.3,2.9-2.8
						c1.8-0.8,3.9-0.7,5.6,0.2c1.2,0.6,2.2,1.7,2.3,3c0.1,1.1-0.5,2.1-1.2,2.9C393.9-271.9,393.1-271.9,392-271.5z"/>
				</g>
			</g>
			<g>
				<g>
					<path class="st5" d="M389.4-266.3c-0.7,0-1.5-0.1-2,0.4c-0.7,0.6-0.5,1.9,0.2,2.5c0.7,0.6,1.7,0.8,2.7,0.9c2,0.2,4.2,0.1,5.9-1
						c0.5-0.3,0.9-0.7,1.1-1.3c0.5-1.4-1-3.3-2.5-3.1c-0.7,0.1-1.4,0.7-2.1,0.9C391.7-266.6,390.5-266.3,389.4-266.3z"/>
				</g>
			</g>
		</g>
		<g>
			<g>
				<g>
					<path class="st1" d="M438.7-278.9c-2.1,5.1-0.1,11.5,4.2,14.8c4.4,3.4,10.7,3.7,15.6,1.2c1.5-0.8,2.8-1.8,3.7-3.2
						c1.1-1.8,1.2-4,1.1-6.1c-0.1-3.3-0.9-6.6-2.9-9.3C455.8-287.6,442.4-288,438.7-278.9z"/>
				</g>
			</g>
			<g>
				<g>
					<path class="st5" d="M451.5-274c-1.1,0.3-2.1,0.6-3.2,0.6s-2.2-0.4-3-1.2c-0.9-1-1.1-2.7-0.5-3.9c0.5-1.3,1.6-2.3,2.9-2.8
						c1.8-0.8,3.9-0.7,5.6,0.2c1.2,0.6,2.2,1.7,2.3,3c0.1,1.1-0.5,2.1-1.2,2.9C453.4-274.3,452.6-274.3,451.5-274z"/>
				</g>
			</g>
			<g>
				<g>
					<path class="st5" d="M448.9-268.7c-0.7,0-1.5-0.1-2,0.4c-0.7,0.6-0.5,1.9,0.2,2.5c0.7,0.6,1.7,0.8,2.7,0.9c2,0.2,4.2,0.1,5.9-1
						c0.5-0.3,0.9-0.7,1.1-1.3c0.5-1.4-1-3.3-2.5-3.1c-0.7,0.1-1.4,0.7-2.1,0.9C451.2-269,450-268.7,448.9-268.7z"/>
				</g>
			</g>
		</g>
		<g>
			<g>
				<path class="st6" d="M387.8-292.5c-1,0.2-1.7,0.8-2.2,1.7c-0.5,0.9-0.3,1.6,0.5,2.2c0.6,0.4,1.5,0.4,2.2,0.3
					c2.7-0.2,5.5-0.4,8.1-1.2c0.5-0.2,0.7-0.3,1-0.7c0.3-0.6,0.5-1.3,0.3-1.8c-0.2-0.7-0.5-1-1.1-1.3c-0.3-0.2-1,0-1.5,0
					c-1.3,0.1-2.6,0.1-3.9,0.4C390.3-292.8,388.9-292.7,387.8-292.5z"/>
			</g>
		</g>
		<g>
			<g>
				<path class="st6" d="M451.2-295.2c1.1,0.1,1.9,0.6,2.6,1.4c0.6,0.9,0.6,1.5-0.3,2.2c-0.6,0.5-1.5,0.6-2.4,0.6
					c-3,0.2-6,0.3-9-0.2c-0.5-0.1-0.8-0.2-1.1-0.6c-0.4-0.5-0.7-1.2-0.5-1.8c0.1-0.7,0.4-1,1-1.4c0.3-0.2,1.1-0.1,1.6-0.2
					c1.5-0.1,2.9-0.2,4.3-0.1C448.5-295.2,450-295.3,451.2-295.2z"/>
			</g>
		</g>
		<g>
			<g>
				<g>
					<path class="st7" d="M353.2-249.7c-0.2-3.5,1.2-7.1,4.4-9.5c2.7-2.1,6.9-3.2,11-3.4c4.1-0.2,8.3,0.4,11.3,2.1
						c3.5,2,5.3,5.3,5.5,8.8c0.2,3.2-0.8,6.5-3.4,8.8c-2.8,2.5-7.3,3.8-11.9,4.1c-4.3,0.3-8.4-0.3-11.4-2.2
						C355.4-242.9,353.4-246.3,353.2-249.7z"/>
				</g>
			</g>
			<g>
				<g>
					<path class="st1" d="M357.2-244c0,0,2.9-7.8,4.5-10c1.7-2.1-0.9-4.1-0.9-4.1s-2.2-2.4-4.6,4.5s-1,9.6-0.5,10.2
						S357-243.4,357.2-244z"/>
				</g>
			</g>
			<g>
				<g>
					<path class="st1" d="M365.7-243.5c0,0,2.4-7.7,3.9-9.8c1.5-2.1-1.1-3.9-1.1-3.9s-2.3-2.1-4.3,4.6s-0.4,9.3,0.1,9.8
						S365.5-242.9,365.7-243.5z"/>
				</g>
			</g>
			<g>
				<g>
					<path class="st1" d="M374.3-243.9c0,0,1.6-7.1,2.9-9.3s-1.5-3.3-1.5-3.3s-2.5-1.5-3.8,4.7c-1.3,6.2,0.5,8.3,1.1,8.6
						C373.5-242.7,374.1-243.3,374.3-243.9z"/>
				</g>
			</g>
			<g>
				<g>
					<path class="st1" d="M381.2-244.3c0,0,1.5-6.1,2.7-7.9c1.2-1.8-1.3-2.7-1.3-2.7s-2.2-1.3-3.5,4s0.3,7,0.9,7.3
						C380.6-243.3,381.1-243.8,381.2-244.3z"/>
				</g>
			</g>
		</g>
		<g>
			<g>
				<g>
					<path class="st7" d="M456.9-253.8c-0.2-3.4,1.2-6.8,4.2-9.1c2.6-2,6.6-3.1,10.5-3.3c3.9-0.2,8,0.4,10.8,2
						c3.3,1.9,5.1,5,5.3,8.4c0.2,3-0.8,6.2-3.3,8.4c-2.7,2.4-7,3.7-11.4,3.9c-4.1,0.3-8.1-0.3-10.9-2.1
						C459-247.3,457.1-250.6,456.9-253.8z"/>
				</g>
			</g>
			<g>
				<g>
					<path class="st1" d="M460.7-248.3c0,0,2.7-7.5,4.4-9.5c1.6-2-0.8-3.9-0.8-3.9s-2.1-2.3-4.4,4.3c-2.3,6.5-1,9.2-0.5,9.8
						S460.5-247.7,460.7-248.3z"/>
				</g>
			</g>
			<g>
				<g>
					<path class="st1" d="M468.8-247.9c0,0,2.3-7.4,3.7-9.4s-1.1-3.7-1.1-3.7s-2.2-2-4.1,4.4c-1.9,6.4-0.4,8.9,0.1,9.4
						C468-246.8,468.6-247.3,468.8-247.9z"/>
				</g>
			</g>
			<g>
				<g>
					<path class="st1" d="M477-248.2c0,0,1.5-6.8,2.8-8.9c1.3-2-1.4-3.1-1.4-3.1s-2.4-1.5-3.7,4.5s0.5,7.9,1,8.3
						C476.3-247.1,476.9-247.7,477-248.2z"/>
				</g>
			</g>
			<g>
				<g>
					<path class="st1" d="M483.7-248.6c0,0,1.5-5.8,2.6-7.5c1.1-1.7-1.2-2.6-1.2-2.6s-2.1-1.2-3.3,3.8c-1.2,5,0.3,6.7,0.8,7
						C483.1-247.7,483.6-248.2,483.7-248.6z"/>
				</g>
			</g>
		</g>
	</g>
	<g>
		<path class="st0" d="M324.7-288.6c-0.3,1.8-4.5-1-4.5-1c-3.2,1.5-7.5-0.4-8.6-3.8c-0.4-1.4-0.4-2.9-1.2-4.1
			c-0.5-0.7-1.3-1.3-1.7-2c-0.7-1.3-0.2-3,0.5-4.4s1.8-2.5,2.2-4c0.2-0.8,0.3-1.6,0.5-2.4c0.7-2.4,3.1-3.8,5.3-5
			c1.4-0.8,3-1.6,4.6-1.3c3,0.5,4.9,4.3,7.8,4c1-0.1,2-0.7,3-0.5c0.9,0.2,1.5,0.9,2.1,1.6c1.4,1.9,2.6,4,3.4,6.3
			C338.5-305.2,326.6-301.2,324.7-288.6z"/>
	</g>
	<g>
		<path class="st0" d="M523.2-301.5c0.1,2.2,3.5-1.4,5.3-2.3c1.8-0.9,1.8-1.7,3.2-3.2c2.5-2.9,3.3-6.5,1.9-9.4
			c-0.4-0.8-1.8-2.3-2.2-3.1c-0.5-1-0.4-2.2-0.4-3.3c0-3-1.1-6.5-4-7.4c-1-0.3-2.1-0.3-3.1-0.6c-0.8-0.2-1.5-0.7-2.2-1
			c-3.1-1.3-6.7-0.2-9.4,1.8c-2.7,2-4.6,4.9-6.4,7.7C505.9-322.3,522.3-314.8,523.2-301.5z"/>
	</g>
</g>
</svg>
